<svg width="38" height="38" viewBox="0 0 38 38" fill="none" xmlns="http://www.w3.org/2000/svg">
<path d="M30.1625 7.77361C28.7109 6.30733 26.9819 5.14475 25.0763 4.35369C23.1707 3.56263 21.1266 3.15892 19.0633 3.16611C10.4183 3.16611 3.37252 10.2119 3.37252 18.8569C3.37252 21.6278 4.10085 24.3194 5.46252 26.6944L3.24585 34.8328L11.5583 32.6478C13.8542 33.8986 16.435 34.5636 19.0633 34.5636C27.7083 34.5636 34.7542 27.5178 34.7542 18.8728C34.7542 14.6769 33.1233 10.7344 30.1625 7.77361ZM19.0633 31.9036C16.72 31.9036 14.4242 31.2703 12.4133 30.0828L11.9383 29.7978L6.99835 31.0961L8.31252 26.2828L7.99585 25.7919C6.69395 23.713 6.00265 21.3099 6.00085 18.8569C6.00085 11.6686 11.8592 5.81028 19.0475 5.81028C22.5308 5.81028 25.8083 7.17194 28.2625 9.64194C29.4777 10.8516 30.4407 12.2903 31.0957 13.8749C31.7507 15.4594 32.0847 17.1582 32.0784 18.8728C32.11 26.0611 26.2517 31.9036 19.0633 31.9036ZM26.22 22.1503C25.8242 21.9603 23.8925 21.0103 23.5442 20.8678C23.18 20.7411 22.9267 20.6778 22.6575 21.0578C22.3883 21.4536 21.6442 22.3403 21.4225 22.5936C21.2008 22.8628 20.9633 22.8944 20.5675 22.6886C20.1717 22.4986 18.905 22.0711 17.4167 20.7411C16.245 19.6961 15.4692 18.4136 15.2317 18.0178C15.01 17.6219 15.2 17.4161 15.4058 17.2103C15.58 17.0361 15.8017 16.7511 15.9917 16.5294C16.1817 16.3078 16.2608 16.1336 16.3875 15.8803C16.5142 15.6111 16.4508 15.3894 16.3558 15.1994C16.2608 15.0094 15.4692 13.0778 15.1525 12.2861C14.8358 11.5261 14.5033 11.6211 14.2658 11.6053H13.5058C13.2367 11.6053 12.825 11.7003 12.4608 12.0961C12.1125 12.4919 11.0992 13.4419 11.0992 15.3736C11.0992 17.3053 12.5083 19.1736 12.6983 19.4269C12.8883 19.6961 15.4692 23.6544 19.3958 25.3486C20.33 25.7603 21.0583 25.9978 21.6283 26.1719C22.5625 26.4728 23.4175 26.4253 24.0983 26.3303C24.8583 26.2194 26.4258 25.3803 26.7425 24.4619C27.075 23.5436 27.075 22.7678 26.9642 22.5936C26.8533 22.4194 26.6158 22.3403 26.22 22.1503Z" fill="white"/>
</svg>
