<svg width="10" height="10" viewBox="0 0 10 10" fill="none" xmlns="http://www.w3.org/2000/svg">
<g clip-path="url(#clip0_322_2930)">
<path d="M4.86261 7.41021C5.04089 7.41021 5.18542 7.26568 5.18542 7.0874C5.18542 6.90912 5.04089 6.76459 4.86261 6.76459C4.68432 6.76459 4.53979 6.90912 4.53979 7.0874C4.53979 7.26568 4.68432 7.41021 4.86261 7.41021Z" fill="#FF3B3B"/>
<path d="M4.86259 6.25001C4.79822 6.25001 4.73648 6.22444 4.69096 6.17892C4.64544 6.1334 4.61987 6.07167 4.61987 6.00729L4.61987 3.09471C4.61987 3.03033 4.64544 2.9686 4.69096 2.92308C4.73648 2.87756 4.79822 2.85199 4.86259 2.85199C4.92696 2.85199 4.9887 2.87756 5.03421 2.92308C5.07973 2.9686 5.1053 3.03033 5.1053 3.09471V6.00729C5.1053 6.07167 5.07973 6.1334 5.03421 6.17892C4.9887 6.22444 4.92696 6.25001 4.86259 6.25001Z" fill="#FF3B3B"/>
<path d="M4.86258 9.01452C4.0945 9.01452 3.34368 8.78676 2.70505 8.36004C2.06642 7.93332 1.56867 7.32681 1.27474 6.6172C0.980809 5.9076 0.903903 5.12676 1.05375 4.37345C1.20359 3.62013 1.57345 2.92817 2.11656 2.38506C2.65967 1.84195 3.35164 1.47208 4.10495 1.32224C4.85827 1.1724 5.6391 1.2493 6.34871 1.54323C7.05832 1.83716 7.66483 2.33491 8.09155 2.97354C8.51827 3.61217 8.74603 4.363 8.74603 5.13107C8.74603 6.16103 8.33688 7.1488 7.60859 7.87709C6.8803 8.60537 5.89253 9.01452 4.86258 9.01452V9.01452ZM4.86258 1.73305C4.19051 1.73305 3.53354 1.93234 2.97474 2.30572C2.41594 2.6791 1.98041 3.2098 1.72322 3.83071C1.46603 4.45161 1.39874 5.13484 1.52985 5.79399C1.66096 6.45314 1.98459 7.05861 2.45982 7.53383C2.93504 8.00906 3.54051 8.33269 4.19966 8.4638C4.85881 8.59491 5.54204 8.52762 6.16294 8.27043C6.78385 8.01324 7.31455 7.57771 7.68793 7.01891C8.06131 6.46011 8.2606 5.80314 8.2606 5.13107C8.2606 4.22986 7.90259 3.36556 7.26534 2.72831C6.62809 2.09106 5.76379 1.73305 4.86258 1.73305V1.73305Z" fill="#FF3B3B"/>
</g>
<defs>
<clipPath id="clip0_322_2930">
<rect width="8.73776" height="8.73776" fill="white" transform="translate(0.493652 0.762207)"/>
</clipPath>
</defs>
</svg>
