<svg width="43" height="43" viewBox="0 0 43 43" fill="none" xmlns="http://www.w3.org/2000/svg">
<g id="tabler:eye-star">
<g id="Group">
<path id="Vector" d="M17.918 21.5C17.918 22.4503 18.2955 23.3618 18.9675 24.0338C19.6395 24.7058 20.5509 25.0833 21.5013 25.0833C22.4517 25.0833 23.3631 24.7058 24.0351 24.0338C24.7071 23.3618 25.0846 22.4503 25.0846 21.5C25.0846 20.5496 24.7071 19.6382 24.0351 18.9662C23.3631 18.2942 22.4517 17.9167 21.5013 17.9167C20.5509 17.9167 19.6395 18.2942 18.9675 18.9662C18.2955 19.6382 17.918 20.5496 17.918 21.5Z" stroke="white" stroke-width="2" stroke-linecap="round" stroke-linejoin="round"/>
<path id="Vector_2" d="M17.2143 31.6802C12.6312 30.4082 8.686 27.0165 5.375 21.5C9.675 14.3333 15.05 10.75 21.5 10.75C27.95 10.75 33.325 14.3333 37.625 21.5M31.8917 37.2971L28.0002 39.336C27.8847 39.3961 27.7548 39.423 27.6249 39.4135C27.4951 39.4041 27.3704 39.3587 27.2649 39.2825C27.1593 39.2063 27.077 39.1023 27.0271 38.982C26.9773 38.8617 26.9618 38.73 26.9825 38.6015L27.726 34.2818L24.5781 31.2234C24.4841 31.1325 24.4176 31.0171 24.3861 30.8903C24.3546 30.7634 24.3594 30.6303 24.3999 30.5061C24.4405 30.3818 24.5151 30.2715 24.6154 30.1877C24.7156 30.1038 24.8374 30.0498 24.9669 30.0319L29.317 29.4012L31.2628 25.4721C31.321 25.3551 31.4107 25.2566 31.5218 25.1878C31.6329 25.119 31.761 25.0825 31.8917 25.0825C32.0224 25.0825 32.1505 25.119 32.2616 25.1878C32.3727 25.2566 32.4624 25.3551 32.5205 25.4721L34.4663 29.4012L38.8165 30.0319C38.9455 30.0505 39.0668 30.1048 39.1666 30.1887C39.2665 30.2726 39.3408 30.3828 39.3812 30.5068C39.4217 30.6308 39.4267 30.7636 39.3955 30.8902C39.3644 31.0168 39.2985 31.1323 39.2053 31.2234L36.0573 34.2818L36.799 38.5997C36.8213 38.7284 36.807 38.8609 36.7578 38.9819C36.7086 39.1029 36.6264 39.2078 36.5206 39.2845C36.4148 39.3612 36.2896 39.4066 36.1593 39.4158C36.0289 39.4249 35.8986 39.3973 35.7832 39.336L31.8917 37.2971Z" stroke="white" stroke-width="2" stroke-linecap="round" stroke-linejoin="round"/>
</g>
</g>
</svg>
