<svg width="10" height="10" viewBox="0 0 10 10" fill="none" xmlns="http://www.w3.org/2000/svg">
<g clip-path="url(#clip0_322_2933)">
<path d="M5.2817 3.63828C5.46936 3.63828 5.6215 3.48615 5.6215 3.29848C5.6215 3.11081 5.46936 2.95868 5.2817 2.95868C5.09403 2.95868 4.94189 3.11081 4.94189 3.29848C4.94189 3.48615 5.09403 3.63828 5.2817 3.63828Z" fill="#0063F7"/>
<path d="M6.01725 6.82999H5.53182V4.18439H4.80367C4.7393 4.18439 4.67756 4.20996 4.63204 4.25548C4.58652 4.30099 4.56095 4.36273 4.56095 4.4271C4.56095 4.49148 4.58652 4.55321 4.63204 4.59873C4.67756 4.64425 4.7393 4.66982 4.80367 4.66982H5.04638V6.82999H4.56095C4.49658 6.82999 4.43485 6.85556 4.38933 6.90108C4.34381 6.9466 4.31824 7.00833 4.31824 7.0727C4.31824 7.13708 4.34381 7.19881 4.38933 7.24433C4.43485 7.28985 4.49658 7.31542 4.56095 7.31542H6.01725C6.08162 7.31542 6.14335 7.28985 6.18887 7.24433C6.23439 7.19881 6.25996 7.13708 6.25996 7.0727C6.25996 7.00833 6.23439 6.9466 6.18887 6.90108C6.14335 6.85556 6.08162 6.82999 6.01725 6.82999Z" fill="#0063F7"/>
<path d="M5.28909 9.0144C4.52102 9.0144 3.77019 8.78664 3.13156 8.35992C2.49293 7.9332 1.99518 7.32669 1.70125 6.61708C1.40732 5.90747 1.33042 5.12664 1.48026 4.37333C1.6301 3.62001 1.99997 2.92805 2.54308 2.38494C3.08619 1.84183 3.77815 1.47196 4.53147 1.32212C5.28478 1.17227 6.06562 1.24918 6.77522 1.54311C7.48483 1.83704 8.09134 2.33479 8.51806 2.97342C8.94478 3.61205 9.17254 4.36288 9.17254 5.13095C9.17254 6.1609 8.76339 7.14868 8.03511 7.87696C7.30682 8.60525 6.31905 9.0144 5.28909 9.0144ZM5.28909 1.73293C4.61703 1.73293 3.96005 1.93222 3.40125 2.3056C2.84245 2.67898 2.40692 3.20968 2.14973 3.83058C1.89254 4.45149 1.82525 5.13472 1.95636 5.79387C2.08748 6.45302 2.41111 7.05849 2.88633 7.53371C3.36155 8.00893 3.96702 8.33256 4.62617 8.46368C5.28532 8.59479 5.96855 8.5275 6.58946 8.27031C7.21036 8.01312 7.74106 7.57759 8.11444 7.01879C8.48782 6.45999 8.68711 5.80301 8.68711 5.13095C8.68711 4.22974 8.32911 3.36544 7.69185 2.72819C7.0546 2.09094 6.1903 1.73293 5.28909 1.73293Z" fill="#0063F7"/>
</g>
<defs>
<clipPath id="clip0_322_2933">
<rect width="8.73776" height="8.73776" fill="white" transform="translate(0.920166 0.762085)"/>
</clipPath>
</defs>
</svg>
