<svg width="26" height="24" viewBox="0 0 26 24" fill="none" xmlns="http://www.w3.org/2000/svg">
<g id="gridicons:location">
<path id="Vector" d="M20.5846 9C20.5846 8.08075 20.3885 7.1705 20.0074 6.32122C19.6263 5.47194 19.0677 4.70026 18.3635 4.05025C17.6593 3.40024 16.8234 2.88463 15.9033 2.53284C14.9833 2.18106 13.9972 2 13.0013 2C12.0054 2 11.0193 2.18106 10.0993 2.53284C9.17923 2.88463 8.34325 3.40024 7.63908 4.05025C6.9349 4.70026 6.37631 5.47194 5.99522 6.32122C5.61412 7.1705 5.41797 8.08075 5.41797 9C5.41797 10.387 5.86105 11.677 6.61505 12.765H6.60639L13.0013 22L19.3962 12.765H19.3886C20.1696 11.6416 20.5847 10.3348 20.5846 9ZM13.0013 12C12.1393 12 11.3127 11.6839 10.7032 11.1213C10.0937 10.5587 9.7513 9.79565 9.7513 9C9.7513 8.20435 10.0937 7.44129 10.7032 6.87868C11.3127 6.31607 12.1393 6 13.0013 6C13.8633 6 14.6899 6.31607 15.2994 6.87868C15.9089 7.44129 16.2513 8.20435 16.2513 9C16.2513 9.79565 15.9089 10.5587 15.2994 11.1213C14.6899 11.6839 13.8633 12 13.0013 12Z" fill="url(#paint0_linear_819_1630)"/>
</g>
<defs>
<linearGradient id="paint0_linear_819_1630" x1="13.0013" y1="2" x2="13.0013" y2="22" gradientUnits="userSpaceOnUse">
<stop stop-color="white"/>
<stop offset="1" stop-color="white"/>
</linearGradient>
</defs>
</svg>
