<svg width="261" height="43" viewBox="0 0 261 43" fill="none" xmlns="http://www.w3.org/2000/svg">
<path d="M10.272 42H0.64L3.616 4.496H18.624L21.44 17.072L22.72 23.44L23.936 17.104L26.432 4.496H39.808L42.56 42H32.608L30.976 19.952L30.592 11.824L25.696 38.256H17.344L11.456 11.824L11.264 19.952L10.272 42ZM59.5388 39.152L59.2188 39.504C59.0054 39.76 58.6747 40.0587 58.2267 40.4C57.8001 40.7413 57.2987 41.0827 56.7227 41.424C56.1681 41.7653 55.4854 42.0533 54.6748 42.288C53.8641 42.544 53.0321 42.672 52.1788 42.672C46.4188 42.672 43.5388 39.824 43.5388 34.128C43.5388 33.0187 43.7414 32.0053 44.1467 31.088C44.5521 30.1493 45.0747 29.36 45.7148 28.72C46.3547 28.08 47.1227 27.5147 48.0188 27.024C48.9147 26.512 49.8107 26.1173 50.7068 25.84C51.6241 25.5413 52.5841 25.296 53.5867 25.104C54.5894 24.912 55.4854 24.784 56.2747 24.72C57.0641 24.656 57.8214 24.624 58.5468 24.624V24.048C58.5468 22.7467 58.1948 21.8293 57.4907 21.296C56.8081 20.7627 55.6987 20.496 54.1628 20.496C52.8401 20.496 51.4641 20.656 50.0348 20.976C48.6054 21.2747 47.4854 21.6373 46.6747 22.064L44.6267 17.712C46.0774 16.7733 47.9654 15.952 50.2908 15.248C52.6161 14.5227 54.9841 14.16 57.3947 14.16C59.5281 14.16 61.2881 14.3733 62.6748 14.8C64.0614 15.2053 65.1814 15.9093 66.0347 16.912C66.9094 17.8933 67.5281 19.152 67.8907 20.688C68.2534 22.2027 68.4348 24.1333 68.4348 26.48V39.504L69.3307 42H60.5628L59.5388 39.152ZM57.0108 37.04C57.2881 37.04 57.5441 36.9867 57.7788 36.88C58.0347 36.752 58.2267 36.6347 58.3548 36.528C58.4828 36.4 58.5468 36.336 58.5468 36.336V28.656C57.2454 28.656 56.2108 29.0187 55.4427 29.744C54.6747 30.448 54.2908 31.5467 54.2908 33.04C54.2908 35.7067 55.1974 37.04 57.0108 37.04ZM82.8632 42H72.5273V21.296L70.6073 20.112V16.496L77.4872 14.8H80.0792L81.0072 22.416C81.8819 17.1893 84.6872 14.576 89.4232 14.576C89.9566 14.576 90.5113 14.672 91.0873 14.864L89.9993 26.256C89.5513 25.8507 88.5699 25.648 87.0552 25.648C84.8792 25.648 83.4819 26.224 82.8632 27.376V42ZM115.029 39.344L114.741 39.696C114.549 39.9093 114.208 40.1867 113.717 40.528C113.248 40.848 112.672 41.1787 111.989 41.52C111.328 41.84 110.432 42.1067 109.301 42.32C108.192 42.5547 106.997 42.672 105.717 42.672C101.386 42.672 98.069 41.4027 95.765 38.864C93.4823 36.3253 92.341 32.9653 92.341 28.784C92.341 26.5227 92.693 24.464 93.397 22.608C94.101 20.752 95.061 19.216 96.277 18C97.5143 16.7627 98.9543 15.8133 100.597 15.152C102.261 14.4693 104.053 14.128 105.973 14.128C109.685 14.128 112.565 15.0133 114.613 16.784C115.061 17.232 115.285 17.456 115.285 17.456L114.805 24.976L110.261 25.008L108.437 20.112C108.266 20.0693 108.032 20.048 107.733 20.048C105.792 20.048 104.448 20.72 103.701 22.064C102.976 23.3867 102.613 25.6907 102.613 28.976C102.613 30.4053 102.73 31.632 102.965 32.656C103.2 33.6587 103.466 34.416 103.765 34.928C104.064 35.4187 104.458 35.8027 104.949 36.08C105.461 36.3573 105.877 36.5173 106.197 36.56C106.517 36.6027 106.912 36.624 107.381 36.624C108.448 36.624 109.536 36.496 110.645 36.24C111.776 35.984 112.704 35.568 113.429 34.992L115.029 39.344ZM132.289 39.152L131.969 39.504C131.755 39.76 131.425 40.0587 130.977 40.4C130.55 40.7413 130.049 41.0827 129.473 41.424C128.918 41.7653 128.235 42.0533 127.425 42.288C126.614 42.544 125.782 42.672 124.929 42.672C119.169 42.672 116.289 39.824 116.289 34.128C116.289 33.0187 116.491 32.0053 116.897 31.088C117.302 30.1493 117.825 29.36 118.465 28.72C119.105 28.08 119.873 27.5147 120.769 27.024C121.665 26.512 122.561 26.1173 123.457 25.84C124.374 25.5413 125.334 25.296 126.337 25.104C127.339 24.912 128.235 24.784 129.025 24.72C129.814 24.656 130.571 24.624 131.297 24.624V24.048C131.297 22.7467 130.945 21.8293 130.241 21.296C129.558 20.7627 128.449 20.496 126.913 20.496C125.59 20.496 124.214 20.656 122.785 20.976C121.355 21.2747 120.235 21.6373 119.425 22.064L117.377 17.712C118.827 16.7733 120.715 15.952 123.041 15.248C125.366 14.5227 127.734 14.16 130.145 14.16C132.278 14.16 134.038 14.3733 135.425 14.8C136.811 15.2053 137.931 15.9093 138.785 16.912C139.659 17.8933 140.278 19.152 140.641 20.688C141.003 22.2027 141.185 24.1333 141.185 26.48V39.504L142.081 42H133.313L132.289 39.152ZM129.761 37.04C130.038 37.04 130.294 36.9867 130.529 36.88C130.785 36.752 130.977 36.6347 131.105 36.528C131.233 36.4 131.297 36.336 131.297 36.336V28.656C129.995 28.656 128.961 29.0187 128.193 29.744C127.425 30.448 127.041 31.5467 127.041 33.04C127.041 35.7067 127.947 37.04 129.761 37.04ZM155.101 42H144.925V7.504L143.357 4.496H155.133L161.021 16.656L166.653 28.784L165.085 14.544V4.496H175.293V42H165.533L157.917 27.184L153.213 17.904L155.101 30.192V42ZM195.613 37.744C195.485 38.0427 195.218 38.4373 194.813 38.928C194.429 39.4187 193.917 39.9627 193.277 40.56C192.637 41.136 191.847 41.6267 190.909 42.032C189.97 42.4587 189.021 42.672 188.061 42.672C185.053 42.672 182.898 41.776 181.597 39.984C180.317 38.192 179.677 35.2053 179.677 31.024V19.632L178.557 18.48V14.8H190.173V33.04C190.151 34 190.311 34.7147 190.653 35.184C190.994 35.632 191.613 35.856 192.509 35.856C192.637 35.856 192.754 35.856 192.861 35.856C192.967 35.8347 193.074 35.8133 193.181 35.792C193.287 35.7493 193.373 35.7173 193.437 35.696C193.522 35.6747 193.618 35.6427 193.725 35.6C193.831 35.536 193.917 35.4827 193.981 35.44C194.045 35.3973 194.13 35.344 194.237 35.28C194.343 35.1947 194.418 35.1307 194.461 35.088C194.525 35.0453 194.61 34.9813 194.717 34.896C194.845 34.7893 194.941 34.7147 195.005 34.672V19.632L193.277 18.48V14.8H205.469V42H196.605L195.613 37.744ZM217.359 42.672C214.479 42.672 212.463 41.808 211.311 40.08C210.18 38.352 209.615 35.4293 209.615 31.312V20.432H207.407V15.984L211.183 14.8L214.447 7.344H220.079V14.8H225.327V20.432H219.983V32.336C219.983 34.0427 220.228 35.1733 220.719 35.728C221.21 36.2827 221.967 36.56 222.991 36.56C223.439 36.56 223.844 36.5067 224.207 36.4C224.57 36.2933 224.868 36.144 225.103 35.952V40.304C224.783 40.624 224.367 40.944 223.855 41.264C223.343 41.5627 222.49 41.872 221.295 42.192C220.122 42.512 218.81 42.672 217.359 42.672ZM238.488 42H228.152V21.296L226.232 20.112V16.496L233.112 14.8H235.704L236.632 22.416C237.507 17.1893 240.312 14.576 245.048 14.576C245.582 14.576 246.136 14.672 246.712 14.864L245.624 26.256C245.176 25.8507 244.195 25.648 242.68 25.648C240.504 25.648 239.107 26.224 238.488 27.376V42ZM249.246 42V21.296L247.326 20.112V16.688L254.206 14.8H259.55V42H249.246ZM253.886 11.856L248.638 6.576V5.456L253.886 0.207999H255.102L260.574 5.456V6.576L255.102 11.856H253.886Z" fill="white"/>
</svg>
