<svg width="10" height="10" viewBox="0 0 10 10" fill="none" xmlns="http://www.w3.org/2000/svg">
<g clip-path="url(#clip0_322_2932)">
<path d="M4.81363 1.24744C4.04555 1.24744 3.29473 1.4752 2.6561 1.90192C2.01747 2.32863 1.51972 2.93515 1.22579 3.64475C0.931858 4.35436 0.854953 5.13519 1.0048 5.88851C1.15464 6.64183 1.5245 7.33379 2.06761 7.8769C2.61072 8.42001 3.30269 8.78987 4.056 8.93972C4.80932 9.08956 5.59015 9.01266 6.29976 8.71873C7.00937 8.4248 7.61588 7.92705 8.0426 7.28842C8.46932 6.64979 8.69708 5.89896 8.69708 5.13089C8.69708 4.10093 8.28793 3.11316 7.55964 2.38487C6.83135 1.65658 5.84358 1.24744 4.81363 1.24744ZM4.81363 8.52891C4.14156 8.52891 3.48459 8.32962 2.92579 7.95624C2.36699 7.58286 1.93146 7.05216 1.67427 6.43125C1.41708 5.81035 1.34979 5.12712 1.4809 4.46797C1.61201 3.80882 1.93564 3.20335 2.41087 2.72812C2.88609 2.2529 3.49156 1.92927 4.15071 1.79816C4.80986 1.66705 5.49309 1.73434 6.11399 1.99153C6.7349 2.24871 7.2656 2.68425 7.63898 3.24305C8.01236 3.80185 8.21165 4.45882 8.21165 5.13089C8.21165 6.0321 7.85364 6.8964 7.21639 7.53365C6.57914 8.1709 5.71484 8.52891 4.81363 8.52891Z" fill="#06C270"/>
<path d="M7.24075 3.69888C7.19528 3.65367 7.13376 3.6283 7.06964 3.6283C7.00552 3.6283 6.944 3.65367 6.89853 3.69888L4.20438 6.38088L2.74809 4.92459C2.70367 4.87663 2.64202 4.84828 2.5767 4.84578C2.51139 4.84328 2.44775 4.86682 2.39979 4.91124C2.35183 4.95566 2.32349 5.01731 2.32098 5.08262C2.31848 5.14794 2.34202 5.21158 2.38644 5.25954L4.20438 7.07262L7.24075 4.04353C7.2635 4.02097 7.28156 3.99412 7.29388 3.96455C7.30621 3.93497 7.31255 3.90325 7.31255 3.8712C7.31255 3.83916 7.30621 3.80744 7.29388 3.77786C7.28156 3.74828 7.2635 3.72144 7.24075 3.69888Z" fill="#06C270"/>
</g>
<defs>
<clipPath id="clip0_322_2932">
<rect width="8.73776" height="8.73776" fill="white" transform="translate(0.444702 0.762024)"/>
</clipPath>
</defs>
</svg>
