<svg width="10" height="10" viewBox="0 0 10 10" fill="none" xmlns="http://www.w3.org/2000/svg">
<g clip-path="url(#clip0_322_2931)">
<path d="M5.33783 7.41009C5.51611 7.41009 5.66064 7.26556 5.66064 7.08728C5.66064 6.90899 5.51611 6.76447 5.33783 6.76447C5.15954 6.76447 5.01501 6.90899 5.01501 7.08728C5.01501 7.26556 5.15954 7.41009 5.33783 7.41009Z" fill="#FFCC00"/>
<path d="M5.33781 6.24989C5.27344 6.24989 5.2117 6.22431 5.16618 6.1788C5.12066 6.13328 5.09509 6.07154 5.09509 6.00717L5.09509 3.09458C5.09509 3.03021 5.12066 2.96848 5.16618 2.92296C5.2117 2.87744 5.27344 2.85187 5.33781 2.85187C5.40218 2.85187 5.46392 2.87744 5.50943 2.92296C5.55495 2.96848 5.58052 3.03021 5.58052 3.09458V6.00717C5.58052 6.07154 5.55495 6.13328 5.50943 6.1788C5.46392 6.22431 5.40218 6.24989 5.33781 6.24989Z" fill="#FFCC00"/>
<path d="M4.62473 1.17009C4.69219 1.04732 4.7914 0.944921 4.91198 0.873617C5.03256 0.802314 5.17009 0.764721 5.31018 0.764771C5.45027 0.76482 5.58777 0.80251 5.7083 0.873899C5.82883 0.945288 5.92797 1.04775 5.99534 1.17058L9.36666 7.37439C9.43132 7.49342 9.46393 7.62721 9.4613 7.76264C9.45866 7.89808 9.42087 8.0305 9.35163 8.14692C9.2824 8.26335 9.18409 8.35978 9.06635 8.42676C8.94861 8.49374 8.81548 8.52897 8.68002 8.52899L1.94515 8.52899C1.80816 8.53205 1.67278 8.49905 1.55258 8.43329C1.43237 8.36754 1.33157 8.27133 1.26027 8.15433C1.18897 8.03732 1.14968 7.90363 1.14635 7.76666C1.14302 7.62968 1.17575 7.49424 1.24127 7.3739L4.62473 1.17009V1.17009ZM1.66796 7.60618C1.64296 7.65216 1.63058 7.70394 1.6321 7.75625C1.63361 7.80856 1.64896 7.85954 1.67659 7.90399C1.70422 7.94843 1.74313 7.98477 1.78937 8.00928C1.8356 8.0338 1.88751 8.04563 1.93981 8.04356L8.68002 8.04356C8.73135 8.04353 8.78179 8.03016 8.82639 8.00476C8.87099 7.97936 8.90823 7.9428 8.93444 7.89867C8.96065 7.85454 8.97495 7.80435 8.97591 7.75303C8.97688 7.70172 8.9645 7.65103 8.93997 7.60594L5.56938 1.40334C5.54383 1.35693 5.5063 1.31822 5.46069 1.29125C5.41509 1.26429 5.36309 1.25005 5.31011 1.25002C5.25713 1.25 5.20511 1.26419 5.15948 1.29111C5.11385 1.31804 5.07628 1.35671 5.05069 1.4031L1.66772 7.60618H1.66796Z" fill="#FFCC00"/>
</g>
<defs>
<clipPath id="clip0_322_2931">
<rect width="8.73776" height="8.73776" fill="white" transform="translate(0.968872 0.762085)"/>
</clipPath>
</defs>
</svg>
