<svg width="20" height="20" viewBox="0 0 20 20" fill="none" xmlns="http://www.w3.org/2000/svg">
<g id="icon-park-solid:check-one" clip-path="url(#clip0_819_1458)">
<g id="Mask group">
<mask id="mask0_819_1458" style="mask-type:luminance" maskUnits="userSpaceOnUse" x="-1" y="-1" width="22" height="22">
<g id="Group">
<g id="Group_2">
<path id="Vector" d="M10.0013 18.3333C11.0959 18.3347 12.1799 18.1198 13.1911 17.7009C14.2024 17.2821 15.1209 16.6675 15.8938 15.8925C16.6688 15.1195 17.2834 14.201 17.7023 13.1898C18.1212 12.1786 18.3361 11.0945 18.3346 9.99997C18.336 8.90541 18.1211 7.82138 17.7022 6.81014C17.2834 5.79891 16.6688 4.88043 15.8938 4.10747C15.1209 3.33248 14.2024 2.71788 13.1911 2.299C12.1799 1.88012 11.0959 1.66521 10.0013 1.66663C8.90676 1.66524 7.82272 1.88015 6.81149 2.29903C5.80026 2.71791 4.88177 3.3325 4.10881 4.10747C3.33384 4.88043 2.71926 5.79891 2.30038 6.81014C1.8815 7.82138 1.66658 8.90541 1.66798 9.99997C1.66656 11.0945 1.88146 12.1786 2.30034 13.1898C2.71923 14.201 3.33382 15.1195 4.10881 15.8925C4.88177 16.6674 5.80026 17.282 6.81149 17.7009C7.82272 18.1198 8.90676 18.3347 10.0013 18.3333Z" fill="white" stroke="white" stroke-width="4" stroke-linejoin="round"/>
<path id="Vector_2" d="M6.66797 10L9.16797 12.5L14.168 7.5" stroke="black" stroke-width="4" stroke-linecap="round" stroke-linejoin="round"/>
</g>
</g>
</mask>
<g mask="url(#mask0_819_1458)">
<path id="Vector_3" d="M0 0H20V20H0V0Z" fill="white"/>
</g>
</g>
</g>
<defs>
<clipPath id="clip0_819_1458">
<rect width="20" height="20" fill="white"/>
</clipPath>
</defs>
</svg>
