<svg width="20" height="20" viewBox="0 0 20 20" fill="none" xmlns="http://www.w3.org/2000/svg">
<g clip-path="url(#clip0_154_137)">
<mask id="mask0_154_137" style="mask-type:luminance" maskUnits="userSpaceOnUse" x="-1" y="-1" width="22" height="22">
<path d="M10.0001 18.3327C11.0946 18.3341 12.1787 18.1192 13.1899 17.7003C14.2012 17.2814 15.1196 16.6668 15.8926 15.8919C16.6676 15.1189 17.2822 14.2004 17.7011 13.1892C18.1199 12.178 18.3348 11.0939 18.3334 9.99936C18.3348 8.9048 18.1199 7.82077 17.701 6.80953C17.2821 5.7983 16.6676 4.87982 15.8926 4.10686C15.1196 3.33187 14.2012 2.71727 13.1899 2.29839C12.1787 1.87951 11.0946 1.6646 10.0001 1.66602C8.90554 1.66463 7.8215 1.87954 6.81027 2.29842C5.79904 2.7173 4.88055 3.33189 4.10759 4.10686C3.33262 4.87982 2.71804 5.7983 2.29916 6.80953C1.88028 7.82077 1.66536 8.9048 1.66676 9.99936C1.66534 11.0939 1.88024 12.178 2.29912 13.1892C2.718 14.2004 3.3326 15.1189 4.10759 15.8919C4.88055 16.6668 5.79904 17.2814 6.81027 17.7003C7.8215 18.1192 8.90554 18.3341 10.0001 18.3327Z" fill="white" stroke="white" stroke-width="4" stroke-linejoin="round"/>
<path d="M6.66675 10L9.16675 12.5L14.1667 7.5" stroke="black" stroke-width="4" stroke-linecap="round" stroke-linejoin="round"/>
</mask>
<g mask="url(#mask0_154_137)">
<path d="M0 0H20V20H0V0Z" fill="#289257"/>
</g>
</g>
<defs>
<clipPath id="clip0_154_137">
<rect width="20" height="20" fill="white"/>
</clipPath>
</defs>
</svg>
