<svg width="46" height="47" viewBox="0 0 46 47" fill="none" xmlns="http://www.w3.org/2000/svg">
<path d="M28.7513 8.16666C32.818 8.16666 36.7181 9.78213 39.5936 12.6577C42.4692 15.5332 44.0846 19.4333 44.0846 23.5C44.0846 27.5666 42.4692 31.4667 39.5936 34.3423C36.7181 37.2179 32.818 38.8333 28.7513 38.8333C24.6847 38.8333 20.7846 37.2179 17.909 34.3423C15.0334 31.4667 13.418 27.5666 13.418 23.5C13.418 19.4333 15.0334 15.5332 17.909 12.6577C20.7846 9.78213 24.6847 8.16666 28.7513 8.16666ZM28.7513 12C25.7013 12 22.7762 13.2116 20.6196 15.3683C18.4629 17.5249 17.2513 20.45 17.2513 23.5C17.2513 26.55 18.4629 29.475 20.6196 31.6317C22.7762 33.7884 25.7013 35 28.7513 35C31.8013 35 34.7264 33.7884 36.883 31.6317C39.0397 29.475 40.2513 26.55 40.2513 23.5C40.2513 20.45 39.0397 17.5249 36.883 15.3683C34.7264 13.2116 31.8013 12 28.7513 12ZM26.8346 15.8333H29.7096V23.0783L34.1755 27.5442L32.1438 29.5758L26.8346 24.2667V15.8333ZM3.83464 35C3.3263 35 2.83879 34.7981 2.47935 34.4386C2.1199 34.0792 1.91797 33.5917 1.91797 33.0833C1.91797 32.575 2.1199 32.0875 2.47935 31.728C2.83879 31.3686 3.3263 31.1667 3.83464 31.1667H11.1755C11.7696 32.5275 12.5363 33.8117 13.418 35H3.83464ZM5.7513 25.4167C5.24297 25.4167 4.75546 25.2147 4.39601 24.8553C4.03657 24.4958 3.83464 24.0083 3.83464 23.5C3.83464 22.9917 4.03657 22.5041 4.39601 22.1447C4.75546 21.7853 5.24297 21.5833 5.7513 21.5833H9.68047L9.58464 23.5L9.68047 25.4167H5.7513ZM7.66797 15.8333C7.15964 15.8333 6.67213 15.6314 6.31268 15.2719C5.95324 14.9125 5.7513 14.425 5.7513 13.9167C5.7513 13.4083 5.95324 12.9208 6.31268 12.5614C6.67213 12.2019 7.15964 12 7.66797 12H13.418C12.5363 13.1883 11.7696 14.4725 11.1755 15.8333H7.66797Z" fill="white"/>
</svg>
