<svg width="12" height="8" viewBox="0 0 12 8" fill="none" xmlns="http://www.w3.org/2000/svg">
<mask id="path-1-inside-1_226_97" fill="white">
<path fill-rule="evenodd" clip-rule="evenodd" d="M11.2053 0.350688C11.3585 0.503978 11.4446 0.711856 11.4446 0.928608C11.4446 1.14536 11.3585 1.35324 11.2053 1.50653L5.08079 7.63341C4.99985 7.7144 4.90376 7.77864 4.798 7.82247C4.69225 7.8663 4.57889 7.88886 4.46442 7.88886C4.34994 7.88886 4.23659 7.8663 4.13083 7.82247C4.02507 7.77864 3.92898 7.7144 3.84804 7.63341L0.805119 4.58986C0.727076 4.51446 0.664827 4.42426 0.622003 4.32453C0.579179 4.2248 0.556638 4.11754 0.555695 4.009C0.554752 3.90046 0.575427 3.79282 0.616512 3.69236C0.657597 3.59191 0.71827 3.50064 0.794991 3.42389C0.871711 3.34714 0.962943 3.28644 1.06336 3.24534C1.16378 3.20424 1.27138 3.18356 1.37988 3.1845C1.48837 3.18544 1.59559 3.20799 1.69528 3.25083C1.79497 3.29367 1.88514 3.35595 1.96051 3.43402L4.46414 5.93861L10.0494 0.350688C10.1253 0.274727 10.2154 0.214469 10.3145 0.173357C10.4137 0.132245 10.52 0.111084 10.6273 0.111084C10.7347 0.111084 10.841 0.132245 10.9402 0.173357C11.0393 0.214469 11.1294 0.274727 11.2053 0.350688Z"/>
</mask>
<path fill-rule="evenodd" clip-rule="evenodd" d="M11.2053 0.350688C11.3585 0.503978 11.4446 0.711856 11.4446 0.928608C11.4446 1.14536 11.3585 1.35324 11.2053 1.50653L5.08079 7.63341C4.99985 7.7144 4.90376 7.77864 4.798 7.82247C4.69225 7.8663 4.57889 7.88886 4.46442 7.88886C4.34994 7.88886 4.23659 7.8663 4.13083 7.82247C4.02507 7.77864 3.92898 7.7144 3.84804 7.63341L0.805119 4.58986C0.727076 4.51446 0.664827 4.42426 0.622003 4.32453C0.579179 4.2248 0.556638 4.11754 0.555695 4.009C0.554752 3.90046 0.575427 3.79282 0.616512 3.69236C0.657597 3.59191 0.71827 3.50064 0.794991 3.42389C0.871711 3.34714 0.962943 3.28644 1.06336 3.24534C1.16378 3.20424 1.27138 3.18356 1.37988 3.1845C1.48837 3.18544 1.59559 3.20799 1.69528 3.25083C1.79497 3.29367 1.88514 3.35595 1.96051 3.43402L4.46414 5.93861L10.0494 0.350688C10.1253 0.274727 10.2154 0.214469 10.3145 0.173357C10.4137 0.132245 10.52 0.111084 10.6273 0.111084C10.7347 0.111084 10.841 0.132245 10.9402 0.173357C11.0393 0.214469 11.1294 0.274727 11.2053 0.350688Z" fill="white"/>
<path d="M11.2053 0.350688L9.0829 2.47092L9.08326 2.47128L11.2053 0.350688ZM11.4446 0.928608H8.44455H11.4446ZM11.2053 1.50653L13.327 3.62744L13.3274 3.62712L11.2053 1.50653ZM5.08079 7.63341L2.95906 5.5125L2.95882 5.51274L5.08079 7.63341ZM4.46442 7.88886V10.8889V7.88886ZM3.84804 7.63341L5.97001 5.51274L5.96958 5.51231L3.84804 7.63341ZM0.805119 4.58986L2.92666 2.46876L2.90832 2.45042L2.88967 2.4324L0.805119 4.58986ZM1.96051 3.43402L-0.197752 5.51774L-0.179645 5.53649L-0.161215 5.55493L1.96051 3.43402ZM4.46414 5.93861L2.34241 8.05953L4.46425 10.1822L6.58598 8.05942L4.46414 5.93861ZM10.0494 0.350688L12.1712 2.4715L12.1718 2.47092L10.0494 0.350688ZM9.08326 2.47128C8.67416 2.0619 8.44455 1.50697 8.44455 0.928608H14.4446C14.4446 -0.0832625 14.0428 -1.05394 13.3274 -1.7699L9.08326 2.47128ZM8.44455 0.928608C8.44455 0.350241 8.67416 -0.204681 9.08326 -0.614063L13.3274 3.62712C14.0428 2.91116 14.4446 1.94048 14.4446 0.928608H8.44455ZM9.08358 -0.614383L2.95906 5.5125L7.20252 9.75432L13.327 3.62744L9.08358 -0.614383ZM2.95882 5.51274C3.15642 5.31502 3.39108 5.15812 3.64942 5.05106L5.94659 10.5939C6.41645 10.3992 6.84329 10.1138 7.20276 9.75408L2.95882 5.51274ZM3.64942 5.05106C3.90777 4.94398 4.18471 4.88886 4.46442 4.88886V10.8889C4.97307 10.8889 5.47672 10.7886 5.94659 10.5939L3.64942 5.05106ZM4.46442 4.88886C4.74412 4.88886 5.02107 4.94398 5.27942 5.05106L2.98224 10.5939C3.45211 10.7886 3.95576 10.8889 4.46442 10.8889V4.88886ZM5.27942 5.05106C5.53775 5.15812 5.77241 5.31502 5.97001 5.51274L1.72607 9.75408C2.08555 10.1138 2.51239 10.3992 2.98224 10.5939L5.27942 5.05106ZM5.96958 5.51231L2.92666 2.46876L-1.31642 6.71096L1.7265 9.75451L5.96958 5.51231ZM2.88967 2.4324C3.09811 2.63379 3.2643 2.87463 3.37861 3.14084L-2.1346 5.50822C-1.93465 5.97388 -1.64395 6.39512 -1.27943 6.74732L2.88967 2.4324ZM3.37861 3.14084C3.49291 3.40704 3.55307 3.6933 3.55558 3.98294L-2.44419 4.03506C-2.43979 4.54177 -2.33456 5.04256 -2.1346 5.50822L3.37861 3.14084ZM3.55558 3.98294C3.5581 4.27258 3.50293 4.55985 3.39327 4.82799L-2.16024 2.55674C-2.35208 3.0258 -2.44859 3.52834 -2.44419 4.03506L3.55558 3.98294ZM3.39327 4.82799C3.2836 5.09613 3.12162 5.33982 2.91672 5.5448L-1.32674 1.30298C-1.68508 1.66146 -1.96841 2.08768 -2.16024 2.55674L3.39327 4.82799ZM2.91672 5.5448C2.71182 5.74978 2.46809 5.91195 2.19974 6.02179L-0.073009 0.468893C-0.542204 0.66093 -0.968393 0.944493 -1.32674 1.30298L2.91672 5.5448ZM2.19974 6.02179C1.93138 6.13162 1.64381 6.18691 1.3538 6.18439L1.40595 0.184613C0.898954 0.180206 0.396184 0.276857 -0.073009 0.468893L2.19974 6.02179ZM1.3538 6.18439C1.06379 6.18187 0.777218 6.12159 0.51082 6.00711L2.87975 0.49456C2.41397 0.294398 1.91296 0.189021 1.40595 0.184613L1.3538 6.18439ZM0.51082 6.00711C0.244417 5.89263 0.00355327 5.72625 -0.197752 5.51774L4.11878 1.3503C3.76672 0.985649 3.34553 0.694723 2.87975 0.49456L0.51082 6.00711ZM-0.161215 5.55493L2.34241 8.05953L6.58587 3.8177L4.08224 1.31311L-0.161215 5.55493ZM6.58598 8.05942L12.1712 2.4715L7.92754 -1.77012L2.34231 3.81781L6.58598 8.05942ZM12.1718 2.47092C11.9691 2.6738 11.7284 2.83479 11.4634 2.94465L9.16566 -2.59794C8.7023 -2.40585 8.2814 -2.12434 7.92697 -1.76954L12.1718 2.47092ZM11.4634 2.94465C11.1984 3.05452 10.9143 3.11108 10.6273 3.11108V-2.88892C10.1257 -2.88892 9.62901 -2.79003 9.16566 -2.59794L11.4634 2.94465ZM10.6273 3.11108C10.3404 3.11108 10.0563 3.05452 9.79129 2.94465L12.089 -2.59794C11.6257 -2.79003 11.129 -2.88892 10.6273 -2.88892V3.11108ZM9.79129 2.94465C9.52627 2.83479 9.28557 2.67379 9.08291 2.47092L13.3277 -1.76954C12.9733 -2.12433 12.5524 -2.40585 12.089 -2.59794L9.79129 2.94465Z" fill="#289257" mask="url(#path-1-inside-1_226_97)"/>
</svg>
