<svg width="26" height="26" viewBox="0 0 26 26" fill="none" xmlns="http://www.w3.org/2000/svg">
<g id="Group">
<path id="Vector" d="M10.6844 11.263C11.2165 11.263 11.7435 11.1581 12.2352 10.9545C12.7269 10.7508 13.1736 10.4523 13.5499 10.076C13.9262 9.69968 14.2248 9.25293 14.4284 8.76126C14.6321 8.26958 14.7369 7.74261 14.7369 7.21042C14.7369 6.67824 14.6321 6.15126 14.4284 5.65959C14.2248 5.16791 13.9262 4.72117 13.5499 4.34486C13.1736 3.96854 12.7269 3.67004 12.2352 3.46638C11.7435 3.26272 11.2165 3.1579 10.6844 3.1579C9.60957 3.1579 8.57879 3.58486 7.81879 4.34486C7.0588 5.10485 6.63184 6.13563 6.63184 7.21042C6.63184 8.28522 7.0588 9.316 7.81879 10.076C8.57879 10.836 9.60957 11.263 10.6844 11.263Z" fill="#A1A1A1" stroke="#9C9C9C" stroke-width="4" stroke-linecap="round" stroke-linejoin="round"/>
<g id="Vector_2">
<path d="M18.79 4.31573C18.79 4.31573 20.0926 6.92093 18.79 10.1051V4.31573ZM22.8426 2C22.8426 2 25.4478 6.68935 22.8426 12.4208V2Z" fill="#A1A1A1"/>
<path d="M18.79 4.31573C18.79 4.31573 20.0926 6.92093 18.79 10.1051M22.8426 2C22.8426 2 25.4478 6.68935 22.8426 12.4208" stroke="#9C9C9C" stroke-width="4" stroke-linecap="round" stroke-linejoin="round"/>
</g>
<path id="Vector_3" d="M2 23.3047V23.9995H19.368V23.3047C19.368 20.7111 19.368 19.4143 18.8631 18.4232C18.4191 17.5518 17.7106 16.8433 16.8392 16.3992C15.8481 15.8944 14.5513 15.8944 11.9576 15.8944H9.41034C6.81672 15.8944 5.51991 15.8944 4.52878 16.3992C3.65735 16.8433 2.94886 17.5518 2.50483 18.4232C2 19.4143 2 20.7111 2 23.3047Z" fill="#A1A1A1" stroke="#9C9C9C" stroke-width="4" stroke-linecap="round" stroke-linejoin="round"/>
</g>
</svg>
