<svg width="41" height="37" viewBox="0 0 41 37" fill="none" xmlns="http://www.w3.org/2000/svg">
<g id="Group">
<path id="Vector" d="M15.6883 14.7751C16.5271 14.7751 17.3577 14.6098 18.1327 14.2888C18.9076 13.9678 19.6118 13.4973 20.2049 12.9042C20.7981 12.3111 21.2686 11.6069 21.5896 10.832C21.9106 10.057 22.0758 9.22638 22.0758 8.38756C22.0758 7.54874 21.9106 6.71814 21.5896 5.94317C21.2686 5.1682 20.7981 4.46405 20.2049 3.87092C19.6118 3.27778 18.9076 2.80728 18.1327 2.48628C17.3577 2.16528 16.5271 2.00006 15.6883 2.00006C13.9942 2.00006 12.3695 2.67303 11.1716 3.87092C9.97375 5.06881 9.30078 6.69349 9.30078 8.38756C9.30078 10.0816 9.97375 11.7063 11.1716 12.9042C12.3695 14.1021 13.9942 14.7751 15.6883 14.7751Z" fill="#289257" stroke="#289257" stroke-width="4" stroke-linecap="round" stroke-linejoin="round"/>
<path id="Vector_2" d="M33.0264 6.56256L38.5014 12.0376L33.0264 17.5126" stroke="#289257" stroke-width="4" stroke-linecap="round" stroke-linejoin="round"/>
<path id="Vector_3" d="M2.00098 33.7551V34.8501H29.376V33.7551C29.376 29.6671 29.376 27.6231 28.5803 26.0609C27.8804 24.6874 26.7637 23.5706 25.3902 22.8708C23.828 22.0751 21.784 22.0751 17.696 22.0751H13.681C9.59298 22.0751 7.54898 22.0751 5.98678 22.8708C4.61325 23.5706 3.49654 24.6874 2.79668 26.0609C2.00098 27.6231 2.00098 29.6671 2.00098 33.7551Z" fill="#289257" stroke="#289257" stroke-width="4" stroke-linecap="round" stroke-linejoin="round"/>
</g>
</svg>
